<svg width="600" height="1080" id="v1" xmlns="http://www.w3.org/2000/svg" xmlns:xlink="http://www.w3.org/1999/xlink">

        <style>
            .sans { font: 12px sans-serif; }
            .grey { stroke: rgb(150,150,150); stroke-width:0.5;}
        </style>
        <line x1="300.0" y1="172.5" x2="300.0" y2="907.5" stroke-width="0.5" stroke="rgb(150,150,150)" stroke-opacity="1"/>
<path d="M300.0 556.7904215164647 Q 275.50219638725804 589.8624563936664 300.0 600.8864680194002" stroke-width="2" stroke="rgb(0,0,255)" stroke-opacity="0.3" fill="none"/>
<path d="M300.0 678.4573146194766 Q 343.09491477782024 620.2791796694194 300.0 600.8864680194002" stroke-width="2" stroke="rgb(255,0,0)" stroke-opacity="0.3" fill="none"/>
<path d="M300.0 496.41898872166496 Q 241.96251150125818 574.7695981949664 300.0 600.8864680194002" stroke-width="2" stroke="rgb(0,0,255)" stroke-opacity="0.3" fill="none"/>
<path d="M300.0 560.3138403953751 Q 262.3205044355194 611.1811594074238 300.0 628.1369324114402" stroke-width="2" stroke="rgb(0,0,255)" stroke-opacity="0.3" fill="none"/>
<path d="M300.0 529.041013286922 Q 244.94671159748987 603.3629526303106 300.0 628.1369324114402" stroke-width="2" stroke="rgb(0,0,255)" stroke-opacity="0.3" fill="none"/>
<path d="M300.0 678.4573146194766 Q 327.9557678933536 640.7170279634493 300.0 628.1369324114402" stroke-width="2" stroke="rgb(255,0,0)" stroke-opacity="0.3" fill="none"/>
<path d="M300.0 628.1369324114402 Q 337.6794955644806 577.2696133993913 300.0 560.3138403953751" stroke-width="2" stroke="rgb(255,0,0)" stroke-opacity="0.3" fill="none"/>
<path d="M300.0 850.0 Q 460.9367553359027 632.7353802965313 300.0 560.3138403953751" stroke-width="2" stroke="rgb(255,0,0)" stroke-opacity="0.3" fill="none"/>
<path d="M300.0 474.5435807791596 Q 252.34985576876915 538.8712754913213 300.0 560.3138403953751" stroke-width="2" stroke="rgb(0,0,255)" stroke-opacity="0.3" fill="none"/>
<path d="M300.0 568.6437081075184 Q 304.62770428452404 562.396307323411 300.0 560.3138403953751" stroke-width="2" stroke="rgb(255,0,0)" stroke-opacity="0.3" fill="none"/>
<path d="M300.0 553.5781301819095 Q 296.2579387702969 558.6299128420087 300.0 560.3138403953751" stroke-width="2" stroke="rgb(0,0,255)" stroke-opacity="0.3" fill="none"/>
<path d="M300.0 554.0062691424262 Q 296.4957937483617 558.7369475821379 300.0 560.3138403953751" stroke-width="2" stroke="rgb(0,0,255)" stroke-opacity="0.3" fill="none"/>
<path d="M300.0 451.43693000644464 Q 235.7149907163905 538.2216925393175 300.0 567.1499467169417" stroke-width="2" stroke="rgb(0,0,255)" stroke-opacity="0.3" fill="none"/>
<path d="M300.0 455.0214301338887 Q 237.70637967608167 539.1178175711784 300.0 567.1499467169417" stroke-width="2" stroke="rgb(0,0,255)" stroke-opacity="0.3" fill="none"/>
<path d="M300.0 465.398100228029 Q 243.4711963950485 541.7119850947136 300.0 567.1499467169417" stroke-width="2" stroke="rgb(0,0,255)" stroke-opacity="0.3" fill="none"/>
<path d="M300.0 678.5497750371893 Q 344.72771352203875 618.167361782437 300.0 598.0398906975196" stroke-width="2" stroke="rgb(255,0,0)" stroke-opacity="0.3" fill="none"/>
<path d="M300.0 556.7904215164647 Q 277.0836282327473 587.7275234022559 300.0 598.0398906975196" stroke-width="2" stroke="rgb(0,0,255)" stroke-opacity="0.3" fill="none"/>
<path d="M300.0 613.471902619907 Q 308.5733399568819 601.8978936781164 300.0 598.0398906975196" stroke-width="2" stroke="rgb(255,0,0)" stroke-opacity="0.3" fill="none"/>
<path d="M300.0 564.5473678598889 Q 281.39304286798296 589.6667599881118 300.0 598.0398906975196" stroke-width="2" stroke="rgb(0,0,255)" stroke-opacity="0.3" fill="none"/>
<path d="M300.0 451.89267418932394 Q 218.8071019398913 561.5030865704706 300.0 598.0398906975196" stroke-width="2" stroke="rgb(0,0,255)" stroke-opacity="0.3" fill="none"/>
<path d="M300.0 567.1499467169417 Q 238.11120648875135 650.6998179571274 300.0 678.5497750371893" stroke-width="2" stroke="rgb(0,0,255)" stroke-opacity="0.3" fill="none"/>
<path d="M300.0 648.964746597271 Q 283.56387308893426 671.1535179272098 300.0 678.5497750371893" stroke-width="2" stroke="rgb(0,0,255)" stroke-opacity="0.3" fill="none"/>
<path d="M300.0 850.0 Q 491.85722541567065 590.9927456888446 300.0 504.6569942517928" stroke-width="2" stroke="rgb(255,0,0)" stroke-opacity="0.3" fill="none"/>
<path d="M300.0 560.3138403953751 Q 330.92047007976794 518.5712057876883 300.0 504.6569942517928" stroke-width="2" stroke="rgb(255,0,0)" stroke-opacity="0.3" fill="none"/>
<path d="M300.0 598.0398906975196 Q 351.87938691429264 528.0027183632245 300.0 504.6569942517928" stroke-width="2" stroke="rgb(255,0,0)" stroke-opacity="0.3" fill="none"/>
<path d="M300.0 550.3887130208657 Q 325.40651042726273 516.089923944061 300.0 504.6569942517928" stroke-width="2" stroke="rgb(255,0,0)" stroke-opacity="0.3" fill="none"/>
<path d="M300.0 325.9032012917497 Q 200.69233724442051 459.968546011782 300.0 504.6569942517928" stroke-width="2" stroke="rgb(0,0,255)" stroke-opacity="0.3" fill="none"/>
<path d="M300.0 554.0062691424262 Q 327.4162638281296 516.9943129744511 300.0 504.6569942517928" stroke-width="2" stroke="rgb(255,0,0)" stroke-opacity="0.3" fill="none"/>
<path d="M300.0 465.398100228029 Q 278.1895033201312 494.84227074585186 300.0 504.6569942517928" stroke-width="2" stroke="rgb(0,0,255)" stroke-opacity="0.3" fill="none"/>
<path d="M300.0 568.6437081075184 Q 330.5970869599184 527.3376407116285 300.0 513.5689515796653" stroke-width="2" stroke="rgb(255,0,0)" stroke-opacity="0.3" fill="none"/>
<path d="M300.0 678.4573146194766 Q 391.6046461332285 554.7910423396181 300.0 513.5689515796653" stroke-width="2" stroke="rgb(255,0,0)" stroke-opacity="0.3" fill="none"/>
<path d="M300.0 470.29560964888896 Q 275.95925448290205 502.7506160969712 300.0 513.5689515796653" stroke-width="2" stroke="rgb(0,0,255)" stroke-opacity="0.3" fill="none"/>
<path d="M300.0 598.0398906975196 Q 381.4460892728194 488.08767017921343 300.0 451.43693000644464" stroke-width="2" stroke="rgb(255,0,0)" stroke-opacity="0.3" fill="none"/>
<path d="M300.0 474.5435807791596 Q 312.83702820706384 457.2135926996234 300.0 451.43693000644464" stroke-width="2" stroke="rgb(255,0,0)" stroke-opacity="0.3" fill="none"/>
<path d="M300.0 470.4951423692192 Q 310.587895757097 456.2014830971383 300.0 451.43693000644464" stroke-width="2" stroke="rgb(255,0,0)" stroke-opacity="0.3" fill="none"/>
<path d="M300.0 383.8747381984435 Q 262.46544899555494 434.5463820544444 300.0 451.43693000644464" stroke-width="2" stroke="rgb(0,0,255)" stroke-opacity="0.3" fill="none"/>
<path d="M300.0 455.0214301338887 Q 301.99138895969116 452.3330550383057 300.0 451.43693000644464" stroke-width="2" stroke="rgb(255,0,0)" stroke-opacity="0.3" fill="none"/>
<path d="M300.0 525.8358588158853 Q 277.225878612334 556.5809226892345 300.0 566.8292773136842" stroke-width="2" stroke="rgb(0,0,255)" stroke-opacity="0.3" fill="none"/>
<path d="M300.0 600.8864680194002 Q 338.42884131750543 549.0075322407679 300.0 531.7145536478905" stroke-width="2" stroke="rgb(255,0,0)" stroke-opacity="0.3" fill="none"/>
<path d="M300.0 569.8318503943206 Q 321.1762759702389 541.243877834498 300.0 531.7145536478905" stroke-width="2" stroke="rgb(255,0,0)" stroke-opacity="0.3" fill="none"/>
<path d="M300.0 607.818647999632 Q 342.2800524176342 550.7405772358259 300.0 531.7145536478905" stroke-width="2" stroke="rgb(255,0,0)" stroke-opacity="0.3" fill="none"/>
<path d="M300.0 356.4688242387364 Q 202.6412614393588 487.903121295602 300.0 531.7145536478905" stroke-width="2" stroke="rgb(0,0,255)" stroke-opacity="0.3" fill="none"/>
<path d="M300.0 567.1499467169417 Q 351.4479810765456 497.6951722636051 300.0 474.5435807791596" stroke-width="2" stroke="rgb(255,0,0)" stroke-opacity="0.3" fill="none"/>
<path d="M300.0 569.8318503943206 Q 352.9379275639783 498.3656481829498 300.0 474.5435807791596" stroke-width="2" stroke="rgb(255,0,0)" stroke-opacity="0.3" fill="none"/>
<path d="M300.0 503.17803206442386 Q 315.90802849181347 481.70219360047565 300.0 474.5435807791596" stroke-width="2" stroke="rgb(255,0,0)" stroke-opacity="0.3" fill="none"/>
<path d="M300.0 613.471902619907 Q 377.18240102263746 509.27566123934645 300.0 474.5435807791596" stroke-width="2" stroke="rgb(255,0,0)" stroke-opacity="0.3" fill="none"/>
<path d="M300.0 554.0062691424262 Q 344.14593797959253 494.4092528699762 300.0 474.5435807791596" stroke-width="2" stroke="rgb(255,0,0)" stroke-opacity="0.3" fill="none"/>
<path d="M300.0 564.2259213725265 Q 349.8235225518705 496.9641659275013 300.0 474.5435807791596" stroke-width="2" stroke="rgb(255,0,0)" stroke-opacity="0.3" fill="none"/>
<path d="M300.0 850.0 Q 456.3090510513787 638.9827810806388 300.0 568.6437081075184" stroke-width="2" stroke="rgb(255,0,0)" stroke-opacity="0.3" fill="none"/>
<path d="M300.0 504.6569942517928 Q 264.451825635708 552.647029643587 300.0 568.6437081075184" stroke-width="2" stroke="rgb(0,0,255)" stroke-opacity="0.3" fill="none"/>
<path d="M300.0 388.02810329820625 Q 199.65799732815992 523.4898069051903 300.0 568.6437081075184" stroke-width="2" stroke="rgb(0,0,255)" stroke-opacity="0.3" fill="none"/>
<path d="M300.0 478.61912829952365 Q 249.98634455111406 546.1375631555197 300.0 568.6437081075184" stroke-width="2" stroke="rgb(0,0,255)" stroke-opacity="0.3" fill="none"/>
<path d="M300.0 567.1499467169417 Q 307.5398980750179 556.9710843156676 300.0 553.5781301819095" stroke-width="2" stroke="rgb(255,0,0)" stroke-opacity="0.3" fill="none"/>
<path d="M300.0 550.3887130208657 Q 298.2281015771979 552.7807758916485 300.0 553.5781301819095" stroke-width="2" stroke="rgb(0,0,255)" stroke-opacity="0.3" fill="none"/>
<path d="M300.0 613.471902619907 Q 333.27431802110976 568.5515732914089 300.0 553.5781301819095" stroke-width="2" stroke="rgb(255,0,0)" stroke-opacity="0.3" fill="none"/>
<path d="M300.0 470.4951423692192 Q 206.7210772484297 596.4216880838391 300.0 638.3972033220457" stroke-width="2" stroke="rgb(0,0,255)" stroke-opacity="0.3" fill="none"/>
<path d="M300.0 600.8864680194002 Q 273.2898452345163 636.9451769528033 300.0 648.964746597271" stroke-width="2" stroke="rgb(0,0,255)" stroke-opacity="0.3" fill="none"/>
<path d="M300.0 678.5497750371893 Q 316.43612691106574 656.3610037072506 300.0 648.964746597271" stroke-width="2" stroke="rgb(255,0,0)" stroke-opacity="0.3" fill="none"/>
<path d="M300.0 678.4573146194766 Q 316.38476001233647 656.3378886028224 300.0 648.964746597271" stroke-width="2" stroke="rgb(255,0,0)" stroke-opacity="0.3" fill="none"/>
<path d="M300.0 504.6569942517928 Q 286.4533227582616 522.9450085281396 300.0 529.041013286922" stroke-width="2" stroke="rgb(0,0,255)" stroke-opacity="0.3" fill="none"/>
<path d="M300.0 568.6437081075184 Q 322.0014971225536 538.941686992071 300.0 529.041013286922" stroke-width="2" stroke="rgb(255,0,0)" stroke-opacity="0.3" fill="none"/>
<path d="M300.0 611.9670238379871 Q 346.07000586170284 549.7725159246883 300.0 529.041013286922" stroke-width="2" stroke="rgb(255,0,0)" stroke-opacity="0.3" fill="none"/>
<path d="M300.0 613.471902619907 Q 346.90604962943615 550.1487356201683 300.0 529.041013286922" stroke-width="2" stroke="rgb(255,0,0)" stroke-opacity="0.3" fill="none"/>
<path d="M300.0 598.0398906975196 Q 322.9163717672527 567.1027888117284 300.0 556.7904215164647" stroke-width="2" stroke="rgb(255,0,0)" stroke-opacity="0.3" fill="none"/>
<path d="M300.0 531.7145536478905 Q 286.0689622952366 550.5214545493211 300.0 556.7904215164647" stroke-width="2" stroke="rgb(0,0,255)" stroke-opacity="0.3" fill="none"/>
<path d="M300.0 678.4573146194766 Q 367.5927183905622 587.2071447922176 300.0 556.7904215164647" stroke-width="2" stroke="rgb(255,0,0)" stroke-opacity="0.3" fill="none"/>
<path d="M300.0 503.17803206442386 Q 270.2153391933107 543.3873241534545 300.0 556.7904215164647" stroke-width="2" stroke="rgb(0,0,255)" stroke-opacity="0.3" fill="none"/>
<path d="M300.0 564.5473678598889 Q 304.3094146352357 558.7296581023207 300.0 556.7904215164647" stroke-width="2" stroke="rgb(255,0,0)" stroke-opacity="0.3" fill="none"/>
<path d="M300.0 598.0398906975196 Q 477.52410226455675 358.3823526403679 300.0 278.4965066213174" stroke-width="2" stroke="rgb(255,0,0)" stroke-opacity="0.3" fill="none"/>
<path d="M300.0 504.6569942517928 Q 425.6447153502641 335.03662852893626 300.0 278.4965066213174" stroke-width="2" stroke="rgb(255,0,0)" stroke-opacity="0.3" fill="none"/>
<path d="M300.0 513.5689515796653 Q 430.5958027546377 337.26461786090437 300.0 278.4965066213174" stroke-width="2" stroke="rgb(255,0,0)" stroke-opacity="0.3" fill="none"/>
<path d="M300.0 474.5435807791596 Q 408.9150411988012 327.50827516077794 300.0 278.4965066213174" stroke-width="2" stroke="rgb(255,0,0)" stroke-opacity="0.3" fill="none"/>
<path d="M300.0 553.5781301819095 Q 452.82312420032895 347.2669125114654 300.0 278.4965066213174" stroke-width="2" stroke="rgb(255,0,0)" stroke-opacity="0.3" fill="none"/>
<path d="M300.0 569.8318503943206 Q 461.85296876277954 351.3303425645682 300.0 278.4965066213174" stroke-width="2" stroke="rgb(255,0,0)" stroke-opacity="0.3" fill="none"/>
<path d="M300.0 607.818647999632 Q 482.9567452101748 360.82704196589606 300.0 278.4965066213174" stroke-width="2" stroke="rgb(255,0,0)" stroke-opacity="0.3" fill="none"/>
<path d="M300.0 470.29560964888896 Q 406.55505723753976 326.4462823782103 300.0 278.4965066213174" stroke-width="2" stroke="rgb(255,0,0)" stroke-opacity="0.3" fill="none"/>
<path d="M300.0 598.0398906975196 Q 332.8519861724959 553.6897093646501 300.0 538.9063155870269" stroke-width="2" stroke="rgb(255,0,0)" stroke-opacity="0.3" fill="none"/>
<path d="M300.0 638.3972033220457 Q 355.27271540834374 563.7790375207817 300.0 538.9063155870269" stroke-width="2" stroke="rgb(255,0,0)" stroke-opacity="0.3" fill="none"/>
<path d="M300.0 525.8358588158853 Q 292.73863512714354 535.6387013942415 300.0 538.9063155870269" stroke-width="2" stroke="rgb(0,0,255)" stroke-opacity="0.3" fill="none"/>
<path d="M300.0 478.61912829952365 Q 266.5071181736093 523.8345187651511 300.0 538.9063155870269" stroke-width="2" stroke="rgb(0,0,255)" stroke-opacity="0.3" fill="none"/>
<path d="M300.0 383.8747381984435 Q 213.8713458952314 500.1484212398811 300.0 538.9063155870269" stroke-width="2" stroke="rgb(0,0,255)" stroke-opacity="0.3" fill="none"/>
<path d="M300.0 648.964746597271 Q 283.61523998766353 671.0841726139251 300.0 678.4573146194766" stroke-width="2" stroke="rgb(0,0,255)" stroke-opacity="0.3" fill="none"/>
<path d="M300.0 455.13589004919754 Q 175.9325419054005 622.6269584769068 300.0 678.4573146194766" stroke-width="2" stroke="rgb(0,0,255)" stroke-opacity="0.3" fill="none"/>
<path d="M300.0 446.9251863308757 Q 171.37103983966617 620.5742825473264 300.0 678.4573146194766" stroke-width="2" stroke="rgb(0,0,255)" stroke-opacity="0.3" fill="none"/>
<path d="M300.0 850.0 Q 432.2405423122294 671.4752678784903 300.0 611.9670238379871" stroke-width="2" stroke="rgb(255,0,0)" stroke-opacity="0.3" fill="none"/>
<path d="M300.0 538.9063155870269 Q 259.4107176383555 593.7018467752471 300.0 611.9670238379871" stroke-width="2" stroke="rgb(0,0,255)" stroke-opacity="0.3" fill="none"/>
<path d="M300.0 455.2121423130857 Q 212.9139547083881 572.7783034567617 300.0 611.9670238379871" stroke-width="2" stroke="rgb(0,0,255)" stroke-opacity="0.3" fill="none"/>
<path d="M300.0 560.3138403953751 Q 319.1544342108277 534.4553542107578 300.0 525.8358588158853" stroke-width="2" stroke="rgb(255,0,0)" stroke-opacity="0.3" fill="none"/>
<path d="M300.0 538.9063155870269 Q 307.26136487285646 529.1034730086708 300.0 525.8358588158853" stroke-width="2" stroke="rgb(255,0,0)" stroke-opacity="0.3" fill="none"/>
<path d="M300.0 455.2121423130857 Q 260.7646019428891 508.1799296901854 300.0 525.8358588158853" stroke-width="2" stroke="rgb(0,0,255)" stroke-opacity="0.3" fill="none"/>
<path d="M300.0 613.471902619907 Q 348.6866910022343 547.7448697668908 300.0 525.8358588158853" stroke-width="2" stroke="rgb(255,0,0)" stroke-opacity="0.3" fill="none"/>
<path d="M300.0 628.1369324114402 Q 433.3937939517966 448.0553105765148 300.0 388.02810329820625" stroke-width="2" stroke="rgb(255,0,0)" stroke-opacity="0.3" fill="none"/>
<path d="M300.0 531.7145536478905 Q 379.8258057498246 423.94971588562737 300.0 388.02810329820625" stroke-width="2" stroke="rgb(255,0,0)" stroke-opacity="0.3" fill="none"/>
<path d="M300.0 568.6437081075184 Q 400.3420026718401 433.1820045005343 300.0 388.02810329820625" stroke-width="2" stroke="rgb(255,0,0)" stroke-opacity="0.3" fill="none"/>
<path d="M300.0 553.5781301819095 Q 391.97223715761294 429.4156100191321 300.0 388.02810329820625" stroke-width="2" stroke="rgb(255,0,0)" stroke-opacity="0.3" fill="none"/>
<path d="M300.0 529.041013286922 Q 378.3405055492865 423.2813307953852 300.0 388.02810329820625" stroke-width="2" stroke="rgb(255,0,0)" stroke-opacity="0.3" fill="none"/>
<path d="M300.0 611.9670238379871 Q 424.41051141098933 444.0128334331515 300.0 388.02810329820625" stroke-width="2" stroke="rgb(255,0,0)" stroke-opacity="0.3" fill="none"/>
<path d="M300.0 455.0214301338887 Q 337.21851490871245 404.7764350071269 300.0 388.02810329820625" stroke-width="2" stroke="rgb(255,0,0)" stroke-opacity="0.3" fill="none"/>
<path d="M300.0 640.4225222228314 Q 440.21912162479174 451.1267080293626 300.0 388.02810329820625" stroke-width="2" stroke="rgb(255,0,0)" stroke-opacity="0.3" fill="none"/>
<path d="M300.0 628.1369324114402 Q 383.0654467288425 515.9985793275027 300.0 478.61912829952365" stroke-width="2" stroke="rgb(255,0,0)" stroke-opacity="0.3" fill="none"/>
<path d="M300.0 678.5497750371893 Q 411.0725815209254 528.6017899839401 300.0 478.61912829952365" stroke-width="2" stroke="rgb(255,0,0)" stroke-opacity="0.3" fill="none"/>
<path d="M300.0 525.8358588158853 Q 326.23151695353425 490.42331092861406 300.0 478.61912829952365" stroke-width="2" stroke="rgb(255,0,0)" stroke-opacity="0.3" fill="none"/>
<path d="M300.0 397.8935009037267 Q 255.15242922455724 458.4377214505744 300.0 478.61912829952365" stroke-width="2" stroke="rgb(0,0,255)" stroke-opacity="0.3" fill="none"/>
<path d="M300.0 470.29560964888896 Q 295.37582297186964 476.538248636865 300.0 478.61912829952365" stroke-width="2" stroke="rgb(0,0,255)" stroke-opacity="0.3" fill="none"/>
<path d="M300.0 678.5497750371893 Q 415.58590703776116 522.5088005362118 300.0 470.4951423692192" stroke-width="2" stroke="rgb(255,0,0)" stroke-opacity="0.3" fill="none"/>
<path d="M300.0 529.041013286922 Q 332.5254838431682 485.1316100986449 300.0 470.4951423692192" stroke-width="2" stroke="rgb(255,0,0)" stroke-opacity="0.3" fill="none"/>
<path d="M300.0 538.9063155870269 Q 338.0062073432265 487.59793567367115 300.0 470.4951423692192" stroke-width="2" stroke="rgb(255,0,0)" stroke-opacity="0.3" fill="none"/>
<path d="M300.0 455.13589004919754 Q 291.4670820444324 466.6553292892138 300.0 470.4951423692192" stroke-width="2" stroke="rgb(0,0,255)" stroke-opacity="0.3" fill="none"/>
<path d="M300.0 465.398100228029 Q 297.168309921561 469.2208818339217 300.0 470.4951423692192" stroke-width="2" stroke="rgb(0,0,255)" stroke-opacity="0.3" fill="none"/>
<path d="M300.0 567.1499467169417 Q 394.03135878511944 440.2076123570304 300.0 397.8935009037267" stroke-width="2" stroke="rgb(255,0,0)" stroke-opacity="0.3" fill="none"/>
<path d="M300.0 513.5689515796653 Q 364.26413926441035 426.8123635727113 300.0 397.8935009037267" stroke-width="2" stroke="rgb(255,0,0)" stroke-opacity="0.3" fill="none"/>
<path d="M300.0 451.43693000644464 Q 329.74634950150994 411.27935817940613 300.0 397.8935009037267" stroke-width="2" stroke="rgb(255,0,0)" stroke-opacity="0.3" fill="none"/>
<path d="M300.0 474.5435807791596 Q 342.58337770857383 417.0560208725849 300.0 397.8935009037267" stroke-width="2" stroke="rgb(255,0,0)" stroke-opacity="0.3" fill="none"/>
<path d="M300.0 613.471902619907 Q 419.7657787312113 451.78810133277176 300.0 397.8935009037267" stroke-width="2" stroke="rgb(255,0,0)" stroke-opacity="0.3" fill="none"/>
<path d="M300.0 455.0214301338887 Q 331.7377384612011 412.1754832112672 300.0 397.8935009037267" stroke-width="2" stroke="rgb(255,0,0)" stroke-opacity="0.3" fill="none"/>
<path d="M300.0 465.398100228029 Q 337.502555180168 414.76965073480227 300.0 397.8935009037267" stroke-width="2" stroke="rgb(255,0,0)" stroke-opacity="0.3" fill="none"/>
<path d="M300.0 446.9251863308757 Q 327.239825237305 410.1514222605139 300.0 397.8935009037267" stroke-width="2" stroke="rgb(255,0,0)" stroke-opacity="0.3" fill="none"/>
<path d="M300.0 600.8864680194002 Q 420.56207212275376 438.1276706536827 300.0 383.8747381984435" stroke-width="2" stroke="rgb(255,0,0)" stroke-opacity="0.3" fill="none"/>
<path d="M300.0 553.5781301819095 Q 394.27966221303666 426.30058619431 300.0 383.8747381984435" stroke-width="2" stroke="rgb(255,0,0)" stroke-opacity="0.3" fill="none"/>
<path d="M300.0 638.3972033220457 Q 441.40136951311234 447.505354479344 300.0 383.8747381984435" stroke-width="2" stroke="rgb(255,0,0)" stroke-opacity="0.3" fill="none"/>
<path d="M300.0 538.9063155870269 Q 386.1286541047686 422.63263254558933 300.0 383.8747381984435" stroke-width="2" stroke="rgb(255,0,0)" stroke-opacity="0.3" fill="none"/>
<path d="M300.0 496.41898872166496 Q 362.52458362401194 412.01080082924886 300.0 383.8747381984435" stroke-width="2" stroke="rgb(255,0,0)" stroke-opacity="0.3" fill="none"/>
<path d="M300.0 455.2121423130857 Q 339.63189117480124 401.709089227104 300.0 383.8747381984435" stroke-width="2" stroke="rgb(255,0,0)" stroke-opacity="0.3" fill="none"/>
<path d="M300.0 613.471902619907 Q 427.5539802341464 441.27402930380936 300.0 383.8747381984435" stroke-width="2" stroke="rgb(255,0,0)" stroke-opacity="0.3" fill="none"/>
<path d="M300.0 356.4688242387364 Q 284.7744922446072 377.02325970851666 300.0 383.8747381984435" stroke-width="2" stroke="rgb(0,0,255)" stroke-opacity="0.3" fill="none"/>
<path d="M300.0 638.3972033220457 Q 338.0918627376251 586.9731886262518 300.0 569.8318503943206" stroke-width="2" stroke="rgb(255,0,0)" stroke-opacity="0.3" fill="none"/>
<path d="M300.0 611.9670238379871 Q 323.40842969092586 580.3656437552372 300.0 569.8318503943206" stroke-width="2" stroke="rgb(255,0,0)" stroke-opacity="0.3" fill="none"/>
<path d="M300.0 503.17803206442386 Q 262.9701009278352 553.1683958118464 300.0 569.8318503943206" stroke-width="2" stroke="rgb(0,0,255)" stroke-opacity="0.3" fill="none"/>
<path d="M300.0 554.0062691424262 Q 291.20801041561424 565.8754550813469 300.0 569.8318503943206" stroke-width="2" stroke="rgb(0,0,255)" stroke-opacity="0.3" fill="none"/>
<path d="M300.0 600.8864680194002 Q 380.97254331677925 491.57353454174824 300.0 455.13589004919754" stroke-width="2" stroke="rgb(255,0,0)" stroke-opacity="0.3" fill="none"/>
<path d="M300.0 598.0398906975196 Q 379.39111147129 490.861890211278 300.0 455.13589004919754" stroke-width="2" stroke="rgb(255,0,0)" stroke-opacity="0.3" fill="none"/>
<path d="M300.0 648.964746597271 Q 407.682698082263 503.5931041862159 300.0 455.13589004919754" stroke-width="2" stroke="rgb(255,0,0)" stroke-opacity="0.3" fill="none"/>
<path d="M300.0 383.8747381984435 Q 260.41047119402555 437.32060208650904 300.0 455.13589004919754" stroke-width="2" stroke="rgb(0,0,255)" stroke-opacity="0.3" fill="none"/>
<path d="M300.0 569.8318503943206 Q 363.7199779695128 483.8098801354783 300.0 455.13589004919754" stroke-width="2" stroke="rgb(255,0,0)" stroke-opacity="0.3" fill="none"/>
<path d="M300.0 554.0062691424262 Q 354.92798838512704 479.8534848225047 300.0 455.13589004919754" stroke-width="2" stroke="rgb(255,0,0)" stroke-opacity="0.3" fill="none"/>
<path d="M300.0 566.8292773136842 Q 277.22812739669564 597.5713053281451 300.0 607.818647999632" stroke-width="2" stroke="rgb(0,0,255)" stroke-opacity="0.3" fill="none"/>
<path d="M300.0 678.4573146194766 Q 339.2437036776914 625.4783146545932 300.0 607.818647999632" stroke-width="2" stroke="rgb(255,0,0)" stroke-opacity="0.3" fill="none"/>
<path d="M300.0 531.7145536478905 Q 319.6086471812364 505.2428799532214 300.0 496.41898872166496" stroke-width="2" stroke="rgb(255,0,0)" stroke-opacity="0.3" fill="none"/>
<path d="M300.0 553.5781301819095 Q 331.7550785890247 510.7087740867261 300.0 496.41898872166496" stroke-width="2" stroke="rgb(255,0,0)" stroke-opacity="0.3" fill="none"/>
<path d="M300.0 678.4573146194766 Q 401.13240327656206 541.9285701961179 300.0 496.41898872166496" stroke-width="2" stroke="rgb(255,0,0)" stroke-opacity="0.3" fill="none"/>
<path d="M300.0 474.5435807791596 Q 310.7396880367077 460.04500192960415 300.0 455.2121423130857" stroke-width="2" stroke="rgb(255,0,0)" stroke-opacity="0.3" fill="none"/>
<path d="M300.0 556.7904215164647 Q 356.43237733521056 480.6067121139304 300.0 455.2121423130857" stroke-width="2" stroke="rgb(255,0,0)" stroke-opacity="0.3" fill="none"/>
<path d="M300.0 550.3887130208657 Q 352.8758726154333 479.0062849900307 300.0 455.2121423130857" stroke-width="2" stroke="rgb(255,0,0)" stroke-opacity="0.3" fill="none"/>
<path d="M300.0 564.5473678598889 Q 360.74179197044623 482.5459486997865 300.0 455.2121423130857" stroke-width="2" stroke="rgb(255,0,0)" stroke-opacity="0.3" fill="none"/>
<path d="M300.0 564.2259213725265 Q 360.5632105885782 482.4655870779459 300.0 455.2121423130857" stroke-width="2" stroke="rgb(255,0,0)" stroke-opacity="0.3" fill="none"/>
<path d="M300.0 850.0 Q 466.450714988408 625.2915347656492 300.0 550.3887130208657" stroke-width="2" stroke="rgb(255,0,0)" stroke-opacity="0.3" fill="none"/>
<path d="M300.0 568.6437081075184 Q 310.14166393702925 554.9524617925289 300.0 550.3887130208657" stroke-width="2" stroke="rgb(255,0,0)" stroke-opacity="0.3" fill="none"/>
<path d="M300.0 648.964746597271 Q 354.7644630980029 575.032721414967 300.0 550.3887130208657" stroke-width="2" stroke="rgb(255,0,0)" stroke-opacity="0.3" fill="none"/>
<path d="M300.0 538.9063155870269 Q 293.62089031453405 547.518113662406 300.0 550.3887130208657" stroke-width="2" stroke="rgb(0,0,255)" stroke-opacity="0.3" fill="none"/>
<path d="M300.0 564.2259213725265 Q 307.6873379731449 553.8480151087808 300.0 550.3887130208657" stroke-width="2" stroke="rgb(255,0,0)" stroke-opacity="0.3" fill="none"/>
<path d="M300.0 504.6569942517928 Q 300.8216456596494 503.5477726112661 300.0 503.17803206442386" stroke-width="2" stroke="rgb(255,0,0)" stroke-opacity="0.3" fill="none"/>
<path d="M300.0 556.7904215164647 Q 329.7846608066893 516.581129427434 300.0 503.17803206442386" stroke-width="2" stroke="rgb(255,0,0)" stroke-opacity="0.3" fill="none"/>
<path d="M300.0 613.471902619907 Q 361.274372530824 530.7514997032947 300.0 503.17803206442386" stroke-width="2" stroke="rgb(255,0,0)" stroke-opacity="0.3" fill="none"/>
<path d="M300.0 465.398100228029 Q 279.01114897978067 493.73304910532516 300.0 503.17803206442386" stroke-width="2" stroke="rgb(0,0,255)" stroke-opacity="0.3" fill="none"/>
<path d="M300.0 640.4225222228314 Q 376.2469389768931 537.4891546040258 300.0 503.17803206442386" stroke-width="2" stroke="rgb(255,0,0)" stroke-opacity="0.3" fill="none"/>
<path d="M300.0 280.81056906305514 Q 176.46252055479516 447.58616631408165 300.0 503.17803206442386" stroke-width="2" stroke="rgb(0,0,255)" stroke-opacity="0.3" fill="none"/>
<path d="M300.0 598.0398906975196 Q 451.1870496698722 393.9373736431922 300.0 325.9032012917497" stroke-width="2" stroke="rgb(255,0,0)" stroke-opacity="0.3" fill="none"/>
<path d="M300.0 568.6437081075184 Q 434.85583711987147 386.5883279956919 300.0 325.9032012917497" stroke-width="2" stroke="rgb(255,0,0)" stroke-opacity="0.3" fill="none"/>
<path d="M300.0 556.7904215164647 Q 428.2706779026194 383.62500634792843 300.0 325.9032012917497" stroke-width="2" stroke="rgb(255,0,0)" stroke-opacity="0.3" fill="none"/>
<path d="M300.0 611.9670238379871 Q 458.9243458590207 397.41915692830906 300.0 325.9032012917497" stroke-width="2" stroke="rgb(255,0,0)" stroke-opacity="0.3" fill="none"/>
<path d="M300.0 470.4951423692192 Q 380.3288561541497 362.0511865611171 300.0 325.9032012917497" stroke-width="2" stroke="rgb(255,0,0)" stroke-opacity="0.3" fill="none"/>
<path d="M300.0 446.9251863308757 Q 367.23443613284775 356.1586975515312 300.0 325.9032012917497" stroke-width="2" stroke="rgb(255,0,0)" stroke-opacity="0.3" fill="none"/>
<path d="M300.0 628.1369324114402 Q 308.147238773074 617.1381600677903 300.0 613.471902619907" stroke-width="2" stroke="rgb(255,0,0)" stroke-opacity="0.3" fill="none"/>
<path d="M300.0 513.5689515796653 Q 244.49836053319902 588.4961648598467 300.0 613.471902619907" stroke-width="2" stroke="rgb(0,0,255)" stroke-opacity="0.3" fill="none"/>
<path d="M300.0 569.8318503943206 Q 275.7555265413408 602.5618895635105 300.0 613.471902619907" stroke-width="2" stroke="rgb(0,0,255)" stroke-opacity="0.3" fill="none"/>
<path d="M300.0 503.17803206442386 Q 238.725627469176 585.8984349810362 300.0 613.471902619907" stroke-width="2" stroke="rgb(0,0,255)" stroke-opacity="0.3" fill="none"/>
<path d="M300.0 598.0398906975196 Q 379.4547003131282 490.7760452747964 300.0 455.0214301338887" stroke-width="2" stroke="rgb(255,0,0)" stroke-opacity="0.3" fill="none"/>
<path d="M300.0 504.6569942517928 Q 327.5753133988356 467.43032116336474 300.0 455.0214301338887" stroke-width="2" stroke="rgb(255,0,0)" stroke-opacity="0.3" fill="none"/>
<path d="M300.0 531.7145536478905 Q 342.6072908411121 474.1947110123891 300.0 455.0214301338887" stroke-width="2" stroke="rgb(255,0,0)" stroke-opacity="0.3" fill="none"/>
<path d="M300.0 611.9670238379871 Q 387.1919965022769 494.25782855991326 300.0 455.0214301338887" stroke-width="2" stroke="rgb(255,0,0)" stroke-opacity="0.3" fill="none"/>
<path d="M300.0 525.8358588158853 Q 339.3413492677759 472.72503730438785 300.0 455.0214301338887" stroke-width="2" stroke="rgb(255,0,0)" stroke-opacity="0.3" fill="none"/>
<path d="M300.0 397.8935009037267 Q 268.2622615387989 440.73944782634817 300.0 455.0214301338887" stroke-width="2" stroke="rgb(0,0,255)" stroke-opacity="0.3" fill="none"/>
<path d="M300.0 451.89267418932394 Q 298.2618022530196 454.2392411477475 300.0 455.0214301338887" stroke-width="2" stroke="rgb(0,0,255)" stroke-opacity="0.3" fill="none"/>
<path d="M300.0 388.02810329820625 Q 201.93374191017628 520.4175517194683 300.0 564.5473678598889" stroke-width="2" stroke="rgb(0,0,255)" stroke-opacity="0.3" fill="none"/>
<path d="M300.0 478.61912829952365 Q 252.2620891331304 543.0653079697976 300.0 564.5473678598889" stroke-width="2" stroke="rgb(0,0,255)" stroke-opacity="0.3" fill="none"/>
<path d="M300.0 550.3887130208657 Q 292.1340806449871 561.0077041501331 300.0 564.5473678598889" stroke-width="2" stroke="rgb(0,0,255)" stroke-opacity="0.3" fill="none"/>
<path d="M300.0 560.3138403953751 Q 303.5042062516383 555.5831619556634 300.0 554.0062691424262" stroke-width="2" stroke="rgb(255,0,0)" stroke-opacity="0.3" fill="none"/>
<path d="M300.0 607.818647999632 Q 329.895766031781 567.4593638567276 300.0 554.0062691424262" stroke-width="2" stroke="rgb(255,0,0)" stroke-opacity="0.3" fill="none"/>
<path d="M300.0 503.17803206442386 Q 271.76209051222094 541.2992098729255 300.0 554.0062691424262" stroke-width="2" stroke="rgb(0,0,255)" stroke-opacity="0.3" fill="none"/>
<path d="M300.0 455.0214301338887 Q 245.00842277303474 529.2600593902918 300.0 554.0062691424262" stroke-width="2" stroke="rgb(0,0,255)" stroke-opacity="0.3" fill="none"/>
<path d="M300.0 560.3138403953751 Q 360.233981225584 478.9979657408367 300.0 451.89267418932394" stroke-width="2" stroke="rgb(255,0,0)" stroke-opacity="0.3" fill="none"/>
<path d="M300.0 598.0398906975196 Q 381.1928980601087 488.42947831637287 300.0 451.89267418932394" stroke-width="2" stroke="rgb(255,0,0)" stroke-opacity="0.3" fill="none"/>
<path d="M300.0 678.5497750371893 Q 425.92061158214744 508.55694940129024 300.0 451.89267418932394" stroke-width="2" stroke="rgb(255,0,0)" stroke-opacity="0.3" fill="none"/>
<path d="M300.0 564.5473678598889 Q 362.58594092809165 480.0563476069652 300.0 451.89267418932394" stroke-width="2" stroke="rgb(255,0,0)" stroke-opacity="0.3" fill="none"/>
<path d="M300.0 470.29560964888896 Q 310.2238530330917 456.4934080542152 300.0 451.89267418932394" stroke-width="2" stroke="rgb(255,0,0)" stroke-opacity="0.3" fill="none"/>
<path d="M300.0 451.43693000644464 Q 237.33944924106564 536.028673531006 300.0 564.2259213725265" stroke-width="2" stroke="rgb(0,0,255)" stroke-opacity="0.3" fill="none"/>
<path d="M300.0 397.8935009037267 Q 207.59309973955567 522.6428162553266 300.0 564.2259213725265" stroke-width="2" stroke="rgb(0,0,255)" stroke-opacity="0.3" fill="none"/>
<path d="M300.0 600.8864680194002 Q 375.27131543965066 499.2701921758718 300.0 465.398100228029" stroke-width="2" stroke="rgb(255,0,0)" stroke-opacity="0.3" fill="none"/>
<path d="M300.0 628.1369324114402 Q 390.4104623241173 506.0828082738818 300.0 465.398100228029" stroke-width="2" stroke="rgb(255,0,0)" stroke-opacity="0.3" fill="none"/>
<path d="M300.0 560.3138403953751 Q 352.7309667596367 489.12703526986553 300.0 465.398100228029" stroke-width="2" stroke="rgb(255,0,0)" stroke-opacity="0.3" fill="none"/>
<path d="M300.0 598.0398906975196 Q 373.6898835941614 498.5585478454017 300.0 465.398100228029" stroke-width="2" stroke="rgb(255,0,0)" stroke-opacity="0.3" fill="none"/>
<path d="M300.0 531.7145536478905 Q 336.8424741221453 481.9772135829944 300.0 465.398100228029" stroke-width="2" stroke="rgb(255,0,0)" stroke-opacity="0.3" fill="none"/>
<path d="M300.0 538.9063155870269 Q 340.8378974216655 483.7751540677785 300.0 465.398100228029" stroke-width="2" stroke="rgb(255,0,0)" stroke-opacity="0.3" fill="none"/>
<path d="M300.0 564.2259213725265 Q 354.90434508027636 490.1050555141534 300.0 465.398100228029" stroke-width="2" stroke="rgb(255,0,0)" stroke-opacity="0.3" fill="none"/>
<path d="M300.0 470.29560964888896 Q 302.7208385671444 466.622477583244 300.0 465.398100228029" stroke-width="2" stroke="rgb(255,0,0)" stroke-opacity="0.3" fill="none"/>
<path d="M300.0 628.1369324114402 Q 387.6896237569729 509.7559403395268 300.0 470.29560964888896" stroke-width="2" stroke="rgb(255,0,0)" stroke-opacity="0.3" fill="none"/>
<path d="M300.0 567.1499467169417 Q 353.8079650378071 494.50919391590213 300.0 470.29560964888896" stroke-width="2" stroke="rgb(255,0,0)" stroke-opacity="0.3" fill="none"/>
<path d="M300.0 598.0398906975196 Q 370.96904502701705 502.2316799110466 300.0 470.29560964888896" stroke-width="2" stroke="rgb(255,0,0)" stroke-opacity="0.3" fill="none"/>
<path d="M300.0 504.6569942517928 Q 319.08965811272435 478.8859557996149 300.0 470.29560964888896" stroke-width="2" stroke="rgb(255,0,0)" stroke-opacity="0.3" fill="none"/>
<path d="M300.0 556.7904215164647 Q 348.0526732597643 491.91931261578287 300.0 470.29560964888896" stroke-width="2" stroke="rgb(255,0,0)" stroke-opacity="0.3" fill="none"/>
<path d="M300.0 611.9670238379871 Q 378.70634121616564 505.7134631961635 300.0 470.29560964888896" stroke-width="2" stroke="rgb(255,0,0)" stroke-opacity="0.3" fill="none"/>
<path d="M300.0 397.8935009037267 Q 259.77660625268766 452.1950824625984 300.0 470.29560964888896" stroke-width="2" stroke="rgb(0,0,255)" stroke-opacity="0.3" fill="none"/>
<path d="M300.0 628.1369324114402 Q 450.9267267626132 424.3858512819123 300.0 356.4688242387364" stroke-width="2" stroke="rgb(255,0,0)" stroke-opacity="0.3" fill="none"/>
<path d="M300.0 504.6569942517928 Q 382.3267611183647 393.51586674200047 300.0 356.4688242387364" stroke-width="2" stroke="rgb(255,0,0)" stroke-opacity="0.3" fill="none"/>
<path d="M300.0 611.9670238379871 Q 441.943444221806 420.34337413854905 300.0 356.4688242387364" stroke-width="2" stroke="rgb(255,0,0)" stroke-opacity="0.3" fill="none"/>
<path d="M300.0 455.13589004919754 Q 354.8150365613673 381.13559069135164 300.0 356.4688242387364" stroke-width="2" stroke="rgb(255,0,0)" stroke-opacity="0.3" fill="none"/>
<path d="M300.0 470.29560964888896 Q 363.23710300564034 384.9255205912745 300.0 356.4688242387364" stroke-width="2" stroke="rgb(255,0,0)" stroke-opacity="0.3" fill="none"/>
<path d="M300.0 446.9251863308757 Q 350.25353449563295 379.0829147617712 300.0 356.4688242387364" stroke-width="2" stroke="rgb(255,0,0)" stroke-opacity="0.3" fill="none"/>
<path d="M300.0 850.0 Q 416.431932098427 692.8168916671235 300.0 640.4225222228314" stroke-width="2" stroke="rgb(255,0,0)" stroke-opacity="0.3" fill="none"/>
<path d="M300.0 850.0 Q 523.9304520384023 547.6938897481568 300.0 446.9251863308757" stroke-width="2" stroke="rgb(255,0,0)" stroke-opacity="0.3" fill="none"/>
<path d="M300.0 451.43693000644464 Q 302.506524264205 448.05312224976797 300.0 446.9251863308757" stroke-width="2" stroke="rgb(255,0,0)" stroke-opacity="0.3" fill="none"/>
<path d="M300.0 529.041013286922 Q 345.61990386447013 467.45414306988727 300.0 446.9251863308757" stroke-width="2" stroke="rgb(255,0,0)" stroke-opacity="0.3" fill="none"/>
<path d="M300.0 470.4951423692192 Q 313.0944200213019 452.81767534046156 300.0 446.9251863308757" stroke-width="2" stroke="rgb(255,0,0)" stroke-opacity="0.3" fill="none"/>
<path d="M300.0 569.8318503943206 Q 368.2814800352471 477.6518523467369 300.0 446.9251863308757" stroke-width="2" stroke="rgb(255,0,0)" stroke-opacity="0.3" fill="none"/>
<path d="M300.0 607.818647999632 Q 389.38525648264243 487.1485517480648 300.0 446.9251863308757" stroke-width="2" stroke="rgb(255,0,0)" stroke-opacity="0.3" fill="none"/>
<path d="M300.0 564.5473678598889 Q 365.34565640500733 476.330731713129 300.0 446.9251863308757" stroke-width="2" stroke="rgb(255,0,0)" stroke-opacity="0.3" fill="none"/>
<path d="M300.0 598.0398906975196 Q 476.2385120191469 360.11789947167125 300.0 280.81056906305514" stroke-width="2" stroke="rgb(255,0,0)" stroke-opacity="0.3" fill="none"/>
<path d="M300.0 513.5689515796653 Q 429.3102125092279 339.0001646922077 300.0 280.81056906305514" stroke-width="2" stroke="rgb(255,0,0)" stroke-opacity="0.3" fill="none"/>
<path d="M300.0 568.6437081075184 Q 459.9072994691462 352.76885382417095 300.0 280.81056906305514" stroke-width="2" stroke="rgb(255,0,0)" stroke-opacity="0.3" fill="none"/>
<path d="M300.0 648.964746597271 Q 504.5300986301199 372.84911344660907 300.0 280.81056906305514" stroke-width="2" stroke="rgb(255,0,0)" stroke-opacity="0.3" fill="none"/>
<path d="M300.0 278.4965066213174 Q 298.7144097545901 280.2320534526207 300.0 280.81056906305514" stroke-width="2" stroke="rgb(0,0,255)" stroke-opacity="0.3" fill="none"/>
<path d="M300.0 455.13589004919754 Q 396.84740054785686 324.3918993095907 300.0 280.81056906305514" stroke-width="2" stroke="rgb(255,0,0)" stroke-opacity="0.3" fill="none"/>
<path d="M300.0 451.89267418932394 Q 395.04561395903823 323.5810953446223 300.0 280.81056906305514" stroke-width="2" stroke="rgb(255,0,0)" stroke-opacity="0.3" fill="none"/>
<path d="M300.0 560.3138403953751 Q 483.50768910854174 312.5784600988438 300.0 230.0" stroke-width="2" stroke="rgb(255,0,0)" stroke-opacity="0.3" fill="none"/>
<path d="M300.0 513.5689515796653 Q 457.53830643314734 300.8922378949163 300.0 230.0" stroke-width="2" stroke="rgb(255,0,0)" stroke-opacity="0.3" fill="none"/>
<path d="M300.0 531.7145536478905 Q 467.61919647105026 305.42863841197266 300.0 230.0" stroke-width="2" stroke="rgb(255,0,0)" stroke-opacity="0.3" fill="none"/>
<path d="M300.0 525.8358588158853 Q 464.35325489771407 303.95896470397133 300.0 230.0" stroke-width="2" stroke="rgb(255,0,0)" stroke-opacity="0.3" fill="none"/>
<path d="M300.0 478.61912829952365 Q 438.1217379441798 292.1547820748809 300.0 230.0" stroke-width="2" stroke="rgb(255,0,0)" stroke-opacity="0.3" fill="none"/>
<path d="M300.0 496.41898872166496 Q 448.01054928981387 296.6047471804162 300.0 230.0" stroke-width="2" stroke="rgb(255,0,0)" stroke-opacity="0.3" fill="none"/>
<path d="M300.0 455.0214301338887 Q 425.01190562993816 286.2553575334722 300.0 230.0" stroke-width="2" stroke="rgb(255,0,0)" stroke-opacity="0.3" fill="none"/>
<path d="M300.0 640.4225222228314 Q 528.0125123460175 332.6056305557079 300.0 230.0" stroke-width="2" stroke="rgb(255,0,0)" stroke-opacity="0.3" fill="none"/>
<circle class="node" r="3" style="fill: rgb(100,100,100); stroke: rgb(255,255,255); stroke-width:1.5" cx="300.0" cy="600.8864680194002"/>
<circle class="node" r="3" style="fill: rgb(100,100,100); stroke: rgb(255,255,255); stroke-width:1.5" cx="300.0" cy="628.1369324114402"/>
<circle class="node" r="3" style="fill: rgb(100,100,100); stroke: rgb(255,255,255); stroke-width:1.5" cx="300.0" cy="850.0"/>
<circle class="node" r="3" style="fill: rgb(100,100,100); stroke: rgb(255,255,255); stroke-width:1.5" cx="300.0" cy="560.3138403953751"/>
<circle class="node" r="3" style="fill: rgb(100,100,100); stroke: rgb(255,255,255); stroke-width:1.5" cx="300.0" cy="567.1499467169417"/>
<circle class="node" r="3" style="fill: rgb(100,100,100); stroke: rgb(255,255,255); stroke-width:1.5" cx="300.0" cy="598.0398906975196"/>
<circle class="node" r="3" style="fill: rgb(100,100,100); stroke: rgb(255,255,255); stroke-width:1.5" cx="300.0" cy="678.5497750371893"/>
<circle class="node" r="3" style="fill: rgb(100,100,100); stroke: rgb(255,255,255); stroke-width:1.5" cx="300.0" cy="504.6569942517928"/>
<circle class="node" r="3" style="fill: rgb(100,100,100); stroke: rgb(255,255,255); stroke-width:1.5" cx="300.0" cy="513.5689515796653"/>
<circle class="node" r="3" style="fill: rgb(100,100,100); stroke: rgb(255,255,255); stroke-width:1.5" cx="300.0" cy="451.43693000644464"/>
<circle class="node" r="3" style="fill: rgb(100,100,100); stroke: rgb(255,255,255); stroke-width:1.5" cx="300.0" cy="566.8292773136842"/>
<circle class="node" r="3" style="fill: rgb(100,100,100); stroke: rgb(255,255,255); stroke-width:1.5" cx="300.0" cy="531.7145536478905"/>
<circle class="node" r="3" style="fill: rgb(100,100,100); stroke: rgb(255,255,255); stroke-width:1.5" cx="300.0" cy="474.5435807791596"/>
<circle class="node" r="3" style="fill: rgb(100,100,100); stroke: rgb(255,255,255); stroke-width:1.5" cx="300.0" cy="568.6437081075184"/>
<circle class="node" r="3" style="fill: rgb(100,100,100); stroke: rgb(255,255,255); stroke-width:1.5" cx="300.0" cy="553.5781301819095"/>
<circle class="node" r="3" style="fill: rgb(100,100,100); stroke: rgb(255,255,255); stroke-width:1.5" cx="300.0" cy="638.3972033220457"/>
<circle class="node" r="3" style="fill: rgb(100,100,100); stroke: rgb(255,255,255); stroke-width:1.5" cx="300.0" cy="648.964746597271"/>
<circle class="node" r="3" style="fill: rgb(100,100,100); stroke: rgb(255,255,255); stroke-width:1.5" cx="300.0" cy="529.041013286922"/>
<circle class="node" r="3" style="fill: rgb(100,100,100); stroke: rgb(255,255,255); stroke-width:1.5" cx="300.0" cy="556.7904215164647"/>
<circle class="node" r="3" style="fill: rgb(100,100,100); stroke: rgb(255,255,255); stroke-width:1.5" cx="300.0" cy="278.4965066213174"/>
<circle class="node" r="3" style="fill: rgb(100,100,100); stroke: rgb(255,255,255); stroke-width:1.5" cx="300.0" cy="538.9063155870269"/>
<circle class="node" r="3" style="fill: rgb(100,100,100); stroke: rgb(255,255,255); stroke-width:1.5" cx="300.0" cy="678.4573146194766"/>
<circle class="node" r="3" style="fill: rgb(100,100,100); stroke: rgb(255,255,255); stroke-width:1.5" cx="300.0" cy="611.9670238379871"/>
<circle class="node" r="3" style="fill: rgb(100,100,100); stroke: rgb(255,255,255); stroke-width:1.5" cx="300.0" cy="525.8358588158853"/>
<circle class="node" r="3" style="fill: rgb(100,100,100); stroke: rgb(255,255,255); stroke-width:1.5" cx="300.0" cy="388.02810329820625"/>
<circle class="node" r="3" style="fill: rgb(100,100,100); stroke: rgb(255,255,255); stroke-width:1.5" cx="300.0" cy="478.61912829952365"/>
<circle class="node" r="3" style="fill: rgb(100,100,100); stroke: rgb(255,255,255); stroke-width:1.5" cx="300.0" cy="470.4951423692192"/>
<circle class="node" r="3" style="fill: rgb(100,100,100); stroke: rgb(255,255,255); stroke-width:1.5" cx="300.0" cy="397.8935009037267"/>
<circle class="node" r="3" style="fill: rgb(100,100,100); stroke: rgb(255,255,255); stroke-width:1.5" cx="300.0" cy="383.8747381984435"/>
<circle class="node" r="3" style="fill: rgb(100,100,100); stroke: rgb(255,255,255); stroke-width:1.5" cx="300.0" cy="569.8318503943206"/>
<circle class="node" r="3" style="fill: rgb(100,100,100); stroke: rgb(255,255,255); stroke-width:1.5" cx="300.0" cy="455.13589004919754"/>
<circle class="node" r="3" style="fill: rgb(100,100,100); stroke: rgb(255,255,255); stroke-width:1.5" cx="300.0" cy="607.818647999632"/>
<circle class="node" r="3" style="fill: rgb(100,100,100); stroke: rgb(255,255,255); stroke-width:1.5" cx="300.0" cy="496.41898872166496"/>
<circle class="node" r="3" style="fill: rgb(100,100,100); stroke: rgb(255,255,255); stroke-width:1.5" cx="300.0" cy="455.2121423130857"/>
<circle class="node" r="3" style="fill: rgb(100,100,100); stroke: rgb(255,255,255); stroke-width:1.5" cx="300.0" cy="550.3887130208657"/>
<circle class="node" r="3" style="fill: rgb(100,100,100); stroke: rgb(255,255,255); stroke-width:1.5" cx="300.0" cy="503.17803206442386"/>
<circle class="node" r="3" style="fill: rgb(100,100,100); stroke: rgb(255,255,255); stroke-width:1.5" cx="300.0" cy="325.9032012917497"/>
<circle class="node" r="3" style="fill: rgb(100,100,100); stroke: rgb(255,255,255); stroke-width:1.5" cx="300.0" cy="613.471902619907"/>
<circle class="node" r="3" style="fill: rgb(100,100,100); stroke: rgb(255,255,255); stroke-width:1.5" cx="300.0" cy="455.0214301338887"/>
<circle class="node" r="3" style="fill: rgb(100,100,100); stroke: rgb(255,255,255); stroke-width:1.5" cx="300.0" cy="564.5473678598889"/>
<circle class="node" r="3" style="fill: rgb(100,100,100); stroke: rgb(255,255,255); stroke-width:1.5" cx="300.0" cy="554.0062691424262"/>
<circle class="node" r="3" style="fill: rgb(100,100,100); stroke: rgb(255,255,255); stroke-width:1.5" cx="300.0" cy="451.89267418932394"/>
<circle class="node" r="3" style="fill: rgb(100,100,100); stroke: rgb(255,255,255); stroke-width:1.5" cx="300.0" cy="564.2259213725265"/>
<circle class="node" r="3" style="fill: rgb(100,100,100); stroke: rgb(255,255,255); stroke-width:1.5" cx="300.0" cy="465.398100228029"/>
<circle class="node" r="3" style="fill: rgb(100,100,100); stroke: rgb(255,255,255); stroke-width:1.5" cx="300.0" cy="470.29560964888896"/>
<circle class="node" r="3" style="fill: rgb(100,100,100); stroke: rgb(255,255,255); stroke-width:1.5" cx="300.0" cy="356.4688242387364"/>
<circle class="node" r="3" style="fill: rgb(100,100,100); stroke: rgb(255,255,255); stroke-width:1.5" cx="300.0" cy="640.4225222228314"/>
<circle class="node" r="3" style="fill: rgb(100,100,100); stroke: rgb(255,255,255); stroke-width:1.5" cx="300.0" cy="446.9251863308757"/>
<circle class="node" r="3" style="fill: rgb(100,100,100); stroke: rgb(255,255,255); stroke-width:1.5" cx="300.0" cy="280.81056906305514"/>
<circle class="node" r="3" style="fill: rgb(100,100,100); stroke: rgb(255,255,255); stroke-width:1.5" cx="300.0" cy="230.0"/>
</svg>